<svg width="22" height="22" viewBox="0 0 22 22" fill="none" xmlns="http://www.w3.org/2000/svg">
<g style="mix-blend-mode:luminosity">
<path d="M11.0474 13.038C9.84788 13.038 8.67528 12.6823 7.67789 12.0158C6.68051 11.3494 5.90314 10.4022 5.4441 9.29394C4.98505 8.1857 4.86494 6.96623 5.09896 5.78974C5.33298 4.61324 5.91062 3.53256 6.75882 2.68436C7.60703 1.83615 8.68771 1.25852 9.8642 1.0245C11.0407 0.79048 12.2602 0.910587 13.3684 1.36963C14.4766 1.82868 15.4239 2.60604 16.0903 3.60343C16.7567 4.60081 17.1124 5.77342 17.1124 6.97296C17.1124 8.5815 16.4734 10.1242 15.336 11.2616C14.1986 12.399 12.656 13.038 11.0474 13.038Z" fill="#A96CF1"/>
<path d="M14.7879 11.7371C13.722 12.5787 12.4035 13.0365 11.0454 13.0365C9.68728 13.0365 8.3688 12.5787 7.30291 11.7371C5.60214 12.4147 4.11753 13.5418 3.00785 14.998C1.89817 16.4541 1.20515 18.1845 1.00291 20.0041C0.988631 20.1363 1.0006 20.2701 1.03814 20.3978C1.07568 20.5254 1.13804 20.6444 1.22165 20.7479C1.30526 20.8514 1.40848 20.9374 1.52538 21.0009C1.64229 21.0644 1.77058 21.1042 1.90291 21.1181L20.0859 21.1241C20.2279 21.1242 20.3684 21.0944 20.4982 21.0366C20.6279 20.9788 20.744 20.8943 20.8389 20.7886C20.9339 20.683 21.0054 20.5585 21.049 20.4233C21.0926 20.2881 21.1072 20.1453 21.0919 20.0041C20.8897 18.1845 20.1966 16.4541 19.087 14.998C17.9773 13.5418 16.4927 12.4147 14.7919 11.7371H14.7879Z" fill="#700BE9"/>
</g>
</svg>
